<svg xmlns="http://www.w3.org/2000/svg" width="178.33473pt" height="101.36118pt" viewBox="-72 -72 178.33473 101.36118" style="position: absolute; top: 0pt; left: 0pt; overflow: visible;">
<g transform="translate(-52.546203613281236,-65.52037048339842)">
<g stroke-miterlimit="10" transform="scale(1,-1)"><g stroke="#000" fill="#000">
 <g stroke-width="0.4">
 <g transform="translate(-10.06946,-3.41666)">
 <g stroke="none" transform="scale(-1.00375,1.00375)translate(-49.21287536621092,-65.52037048339842)scale(-1,-1)"><g fill="#000">
 <g stroke="none"> <text alignment-baseline="baseline" y="-65.52037048339842" x="-49.21287536621092" style="font-family: cmr10;" font-size="10">L</text>
<text alignment-baseline="baseline" y="-65.52037048339842" x="-43.79619979858398" style="font-family: cmr10;" font-size="10">TN</text>
</g> </g>
 </g></g>
 <g transform="translate(-16.28386,-47.34761)">
 <g stroke="none" transform="scale(-1.00375,1.00375)translate(-49.21287536621092,-65.52037048339842)scale(-1,-1)"><g fill="#000">
 <g stroke="none"> <text alignment-baseline="baseline" y="-65.52037048339842" x="-49.21287536621092" style="font-family: cmmi10;" font-size="10">T</text>
<text alignment-baseline="baseline" y="-65.52037048339842" x="-41.98021125793456" style="font-family: cmmi10;" font-size="10">C</text>
<text alignment-baseline="baseline" y="-69.14929199218749" x="-34.11772346496581" style="font-family: cmmi7;" font-size="7">I</text>
<text alignment-baseline="baseline" y="-69.14929199218749" x="-30.02949905395507" style="font-family: cmmi7;" font-size="7">N</text>
<text alignment-baseline="baseline" y="-69.14929199218749" x="-22.944764137268063" style="font-family: cmmi7;" font-size="7">T</text>
</g> </g>
 </g></g>
 <g transform="translate(51.80255,-47.34761)">
 <g stroke="none" transform="scale(-1.00375,1.00375)translate(-49.21287536621092,-65.52037048339842)scale(-1,-1)"><g fill="#000">
 <g stroke="none"> <text alignment-baseline="baseline" y="-65.52037048339842" x="-49.21287536621092" style="font-family: cmmi10;" font-size="10">T</text>
<text alignment-baseline="baseline" y="-65.52037048339842" x="-41.98021125793456" style="font-family: cmmi10;" font-size="10">C</text>
<text alignment-baseline="baseline" y="-69.14929199218749" x="-34.11772346496581" style="font-family: cmmi7;" font-size="7">I</text>
<text alignment-baseline="baseline" y="-69.14929199218749" x="-30.02949905395507" style="font-family: cmmi7;" font-size="7">B</text>
<text alignment-baseline="baseline" y="-69.14929199218749" x="-23.646490097045895" style="font-family: cmmi7;" font-size="7">D</text>
</g> </g>
 </g></g>
 <g transform="translate(120.14134,-47.34761)">
 <g stroke="none" transform="scale(-1.00375,1.00375)translate(-49.21287536621092,-65.52037048339842)scale(-1,-1)"><g fill="#000">
 <g stroke="none"> <text alignment-baseline="baseline" y="-65.52037048339842" x="-49.21287536621092" style="font-family: cmmi10;" font-size="10">T</text>
<text alignment-baseline="baseline" y="-65.52037048339842" x="-41.98021125793456" style="font-family: cmmi10;" font-size="10">C</text>
<text alignment-baseline="baseline" y="-69.14929199218749" x="-34.11772346496581" style="font-family: cmmi7;" font-size="7">O</text>
<text alignment-baseline="baseline" y="-69.14929199218749" x="-27.81995010375976" style="font-family: cmmi7;" font-size="7">B</text>
<text alignment-baseline="baseline" y="-69.14929199218749" x="-21.436941146850582" style="font-family: cmmi7;" font-size="7">D</text>
</g> </g>
 </g></g>
 <g transform="translate(-16.39082,-91.27856)">
 <g stroke="none" transform="scale(-1.00375,1.00375)translate(-49.21287536621092,-65.52037048339842)scale(-1,-1)"><g fill="#000">
 <g stroke="none"> <text alignment-baseline="baseline" y="-65.52037048339842" x="-49.21287536621092" style="font-family: cmmi10;" font-size="10">AP</text>
<text alignment-baseline="baseline" y="-69.14929199218749" x="-33.90382003784179" style="font-family: cmmi7;" font-size="7">I</text>
<text alignment-baseline="baseline" y="-69.14929199218749" x="-29.815595626831048" style="font-family: cmmi7;" font-size="7">N</text>
<text alignment-baseline="baseline" y="-69.14929199218749" x="-22.73086071014404" style="font-family: cmmi7;" font-size="7">T</text>
</g> </g>
 </g></g>
 <g transform="translate(51.69559,-91.27856)">
 <g stroke="none" transform="scale(-1.00375,1.00375)translate(-49.21287536621092,-65.52037048339842)scale(-1,-1)"><g fill="#000">
 <g stroke="none"> <text alignment-baseline="baseline" y="-65.52037048339842" x="-49.21287536621092" style="font-family: cmmi10;" font-size="10">AP</text>
<text alignment-baseline="baseline" y="-69.14929199218749" x="-33.90382003784179" style="font-family: cmmi7;" font-size="7">I</text>
<text alignment-baseline="baseline" y="-69.14929199218749" x="-29.815595626831048" style="font-family: cmmi7;" font-size="7">B</text>
<text alignment-baseline="baseline" y="-69.14929199218749" x="-23.43258666992187" style="font-family: cmmi7;" font-size="7">D</text>
</g> </g>
 </g></g>
 <g transform="translate(120.0344,-91.27856)">
 <g stroke="none" transform="scale(-1.00375,1.00375)translate(-49.21287536621092,-65.52037048339842)scale(-1,-1)"><g fill="#000">
 <g stroke="none"> <text alignment-baseline="baseline" y="-65.52037048339842" x="-49.21287536621092" style="font-family: cmmi10;" font-size="10">AP</text>
<text alignment-baseline="baseline" y="-69.14929199218749" x="-33.90382003784179" style="font-family: cmmi7;" font-size="7">O</text>
<text alignment-baseline="baseline" y="-69.14929199218749" x="-27.606046676635735" style="font-family: cmmi7;" font-size="7">B</text>
<text alignment-baseline="baseline" y="-69.14929199218749" x="-21.22303771972656" style="font-family: cmmi7;" font-size="7">D</text>
</g> </g>
 </g></g>
 <g stroke-width="0.8">
 <path d=" M 19.81683 -43.14148 L 47.46959 -43.14148  " fill="none"/>
 <g transform="translate(47.86958,-43.14148)">
 <g stroke-dasharray="none" stroke-dashoffset="0.0">
 <g stroke-linecap="round">
 <g stroke-linejoin="round">
 <path d=" M -2.56 3.12257 C -2.0923 1.24901 -1.05006 0.3643 0.0 0.0 C -1.05006 -0.3643 -2.0923 -1.24901 -2.56 -3.12257  " fill="none"/>
 </g>
 </g>
 </g>
  </g>
 </g>
 <g stroke-width="0.8">
 <path d=" M 0.0 -6.94963 L 0.0 -34.60239  " fill="none"/>
 <g transform="matrix(0.0,-1.0,1.0,0.0,0.0,-35.00238)">
 <g stroke-dasharray="none" stroke-dashoffset="0.0">
 <g stroke-linecap="round">
 <g stroke-linejoin="round">
 <path d=" M -2.56 3.12257 C -2.0923 1.24901 -1.05006 0.3643 0.0 0.0 C -1.05006 -0.3643 -2.0923 -1.24901 -2.56 -3.12257  " fill="none"/>
 </g>
 </g>
 </g>
  </g>
 </g>
 <g stroke-width="0.8">
 <path d=" M 0.0 -50.88058 L 0.0 -78.53334  " fill="none"/>
 <g transform="matrix(0.0,-1.0,1.0,0.0,0.0,-78.93333)">
 <g stroke-dasharray="none" stroke-dashoffset="0.0">
 <g stroke-linecap="round">
 <g stroke-linejoin="round">
 <path d=" M -2.56 3.12257 C -2.0923 1.24901 -1.05006 0.3643 0.0 0.0 C -1.05006 -0.3643 -2.0923 -1.24901 -2.56 -3.12257  " fill="none"/>
 </g>
 </g>
 </g>
  </g>
 </g>
 <g stroke-width="0.8">
 <path d=" M 68.2126 -50.88058 L 68.2126 -78.53334  " fill="none"/>
 <g transform="matrix(0.0,-1.0,1.0,0.0,68.2126,-78.93333)">
 <g stroke-dasharray="none" stroke-dashoffset="0.0">
 <g stroke-linecap="round">
 <g stroke-linejoin="round">
 <path d=" M -2.56 3.12257 C -2.0923 1.24901 -1.05006 0.3643 0.0 0.0 C -1.05006 -0.3643 -2.0923 -1.24901 -2.56 -3.12257  " fill="none"/>
 </g>
 </g>
 </g>
  </g>
 </g>
 <g stroke-width="0.8">
 <path d=" M 137.65617 -50.88058 L 137.65617 -78.53334  " fill="none"/>
 <g transform="matrix(0.0,-1.0,1.0,0.0,137.65617,-78.93333)">
 <g stroke-dasharray="none" stroke-dashoffset="0.0">
 <g stroke-linecap="round">
 <g stroke-linejoin="round">
 <path d=" M -2.56 3.12257 C -2.0923 1.24901 -1.05006 0.3643 0.0 0.0 C -1.05006 -0.3643 -2.0923 -1.24901 -2.56 -3.12257  " fill="none"/>
 </g>
 </g>
 </g>
  </g>
 </g>
 <g stroke-width="0.8">
 <path d=" M 12.01276 -50.88058 L 55.52988 -78.90027  " fill="none"/>
 <g transform="matrix(0.84074,-0.54134,0.54134,0.84074,55.86617,-79.11679)">
 <g stroke-dasharray="none" stroke-dashoffset="0.0">
 <g stroke-linecap="round">
 <g stroke-linejoin="round">
 <path d=" M -2.56 3.12257 C -2.0923 1.24901 -1.05006 0.3643 0.0 0.0 C -1.05006 -0.3643 -2.0923 -1.24901 -2.56 -3.12257  " fill="none"/>
 </g>
 </g>
 </g>
  </g>
 </g>
 <g stroke-width="0.8">
 <path d=" M 125.4266 -50.88058 L 81.11563 -78.90575  " fill="none"/>
 <g transform="matrix(-0.84511,-0.5345,0.5345,-0.84511,80.77759,-79.11954)">
 <g stroke-dasharray="none" stroke-dashoffset="0.0">
 <g stroke-linecap="round">
 <g stroke-linejoin="round">
 <path d=" M -2.56 3.12257 C -2.0923 1.24901 -1.05006 0.3643 0.0 0.0 C -1.05006 -0.3643 -2.0923 -1.24901 -2.56 -3.12257  " fill="none"/>
 </g>
 </g>
 </g>
  </g>
 </g>
 <g stroke-width="0.8">
 <path d=" M 56.19984 -50.88058 L 12.68272 -78.90027  " fill="none"/>
 <g transform="matrix(-0.84074,-0.54134,0.54134,-0.84074,12.34644,-79.11679)">
 <g stroke-dasharray="none" stroke-dashoffset="0.0">
 <g stroke-linecap="round">
 <g stroke-linejoin="round">
 <path d=" M -2.56 3.12257 C -2.0923 1.24901 -1.05006 0.3643 0.0 0.0 C -1.05006 -0.3643 -2.0923 -1.24901 -2.56 -3.12257  " fill="none"/>
 </g>
 </g>
 </g>
  </g>
 </g>
 <g stroke-width="0.8">
 <path d=" M 80.44217 -50.88058 L 124.75314 -78.90575  " fill="none"/>
 <g transform="matrix(0.84511,-0.5345,0.5345,0.84511,125.09119,-79.11954)">
 <g stroke-dasharray="none" stroke-dashoffset="0.0">
 <g stroke-linecap="round">
 <g stroke-linejoin="round">
 <path d=" M -2.56 3.12257 C -2.0923 1.24901 -1.05006 0.3643 0.0 0.0 C -1.05006 -0.3643 -2.0923 -1.24901 -2.56 -3.12257  " fill="none"/>
 </g>
 </g>
 </g>
  </g>
 </g>
 <g stroke-width="0.8">
 <path d=" M 13.40077 -35.40237 C 54.58423 -11.62735 83.07195 -11.62735 123.56259 -35.00243  " fill="none"/>
 <g transform="matrix(0.86604,-0.49995,0.49995,0.86604,123.909,-35.20241)">
 <g stroke-dasharray="none" stroke-dashoffset="0.0">
 <g stroke-linecap="round">
 <g stroke-linejoin="round">
 <path d=" M -2.56 3.12257 C -2.0923 1.24901 -1.05006 0.3643 0.0 0.0 C -1.05006 -0.3643 -2.0923 -1.24901 -2.56 -3.12257  " fill="none"/>
 </g>
 </g>
 </g>
  </g>
 </g>
 </g>
 </g>
 </g></g></svg>