<svg xmlns="http://www.w3.org/2000/svg" width="233.88538pt" height="59.00917pt" viewBox="-72 -72 233.88538 59.00917" style="position: absolute; top: 0pt; left: 0pt; overflow: visible;">
<g transform="translate(-58.86756896972655,-64.73089599609374)">
<g stroke-miterlimit="10" transform="scale(1,-1)"><g stroke="#000" fill="#000">
 <g stroke-width="0.4">
 <g transform="translate(-10.06946,-3.41666)">
 <g stroke="none" transform="scale(-1.00375,1.00375)translate(-55.534240722656236,-64.73089599609374)scale(-1,-1)"><g fill="#000">
 <g stroke="none"> <text alignment-baseline="baseline" y="-64.73089599609374" x="-55.534240722656236" style="font-family: cmr10;" font-size="10">L</text>
<text alignment-baseline="baseline" y="-64.73089599609374" x="-50.11756515502928" style="font-family: cmr10;" font-size="10">TN</text>
</g> </g>
 </g></g>
 <g transform="translate(45.58815,-4.20613)">
 <g stroke="none" transform="scale(-1.00375,1.00375)translate(-55.534240722656236,-64.73089599609374)scale(-1,-1)"><g fill="#000">
 <g stroke="none"> <text alignment-baseline="baseline" y="-64.73089599609374" x="-55.534240722656236" style="font-family: cmmi10;" font-size="10">T</text>
<text alignment-baseline="baseline" y="-64.73089599609374" x="-48.30157661437987" style="font-family: cmmi10;" font-size="10">C</text>
<text alignment-baseline="baseline" y="-68.3598175048828" x="-40.439088821411126" style="font-family: cmmi7;" font-size="7">I</text>
<text alignment-baseline="baseline" y="-68.3598175048828" x="-36.35086441040038" style="font-family: cmmi7;" font-size="7">N</text>
<text alignment-baseline="baseline" y="-68.3598175048828" x="-29.266129493713372" style="font-family: cmmi7;" font-size="7">T</text>
</g> </g>
 </g></g>
 <g transform="translate(113.67456,-4.20613)">
 <g stroke="none" transform="scale(-1.00375,1.00375)translate(-55.534240722656236,-64.73089599609374)scale(-1,-1)"><g fill="#000">
 <g stroke="none"> <text alignment-baseline="baseline" y="-64.73089599609374" x="-55.534240722656236" style="font-family: cmmi10;" font-size="10">T</text>
<text alignment-baseline="baseline" y="-64.73089599609374" x="-48.30157661437987" style="font-family: cmmi10;" font-size="10">C</text>
<text alignment-baseline="baseline" y="-68.3598175048828" x="-40.439088821411126" style="font-family: cmmi7;" font-size="7">I</text>
<text alignment-baseline="baseline" y="-68.3598175048828" x="-36.35086441040038" style="font-family: cmmi7;" font-size="7">B</text>
<text alignment-baseline="baseline" y="-68.3598175048828" x="-29.967855453491204" style="font-family: cmmi7;" font-size="7">D</text>
</g> </g>
 </g></g>
 <g transform="translate(182.01335,-4.20613)">
 <g stroke="none" transform="scale(-1.00375,1.00375)translate(-55.534240722656236,-64.73089599609374)scale(-1,-1)"><g fill="#000">
 <g stroke="none"> <text alignment-baseline="baseline" y="-64.73089599609374" x="-55.534240722656236" style="font-family: cmmi10;" font-size="10">T</text>
<text alignment-baseline="baseline" y="-64.73089599609374" x="-48.30157661437987" style="font-family: cmmi10;" font-size="10">C</text>
<text alignment-baseline="baseline" y="-68.3598175048828" x="-40.439088821411126" style="font-family: cmmi7;" font-size="7">O</text>
<text alignment-baseline="baseline" y="-68.3598175048828" x="-34.14131546020507" style="font-family: cmmi7;" font-size="7">B</text>
<text alignment-baseline="baseline" y="-68.3598175048828" x="-27.75830650329589" style="font-family: cmmi7;" font-size="7">D</text>
</g> </g>
 </g></g>
 <g transform="translate(45.48119,-48.13708)">
 <g stroke="none" transform="scale(-1.00375,1.00375)translate(-55.534240722656236,-64.73089599609374)scale(-1,-1)"><g fill="#000">
 <g stroke="none"> <text alignment-baseline="baseline" y="-64.73089599609374" x="-55.534240722656236" style="font-family: cmmi10;" font-size="10">AP</text>
<text alignment-baseline="baseline" y="-68.3598175048828" x="-40.2251853942871" style="font-family: cmmi7;" font-size="7">I</text>
<text alignment-baseline="baseline" y="-68.3598175048828" x="-36.13696098327636" style="font-family: cmmi7;" font-size="7">N</text>
<text alignment-baseline="baseline" y="-68.3598175048828" x="-29.05222606658935" style="font-family: cmmi7;" font-size="7">T</text>
</g> </g>
 </g></g>
 <g transform="translate(113.5676,-48.13708)">
 <g stroke="none" transform="scale(-1.00375,1.00375)translate(-55.534240722656236,-64.73089599609374)scale(-1,-1)"><g fill="#000">
 <g stroke="none"> <text alignment-baseline="baseline" y="-64.73089599609374" x="-55.534240722656236" style="font-family: cmmi10;" font-size="10">AP</text>
<text alignment-baseline="baseline" y="-68.3598175048828" x="-40.2251853942871" style="font-family: cmmi7;" font-size="7">I</text>
<text alignment-baseline="baseline" y="-68.3598175048828" x="-36.13696098327636" style="font-family: cmmi7;" font-size="7">B</text>
<text alignment-baseline="baseline" y="-68.3598175048828" x="-29.75395202636718" style="font-family: cmmi7;" font-size="7">D</text>
</g> </g>
 </g></g>
 <g transform="translate(181.9064,-48.13708)">
 <g stroke="none" transform="scale(-1.00375,1.00375)translate(-55.534240722656236,-64.73089599609374)scale(-1,-1)"><g fill="#000">
 <g stroke="none"> <text alignment-baseline="baseline" y="-64.73089599609374" x="-55.534240722656236" style="font-family: cmmi10;" font-size="10">AP</text>
<text alignment-baseline="baseline" y="-68.3598175048828" x="-40.2251853942871" style="font-family: cmmi7;" font-size="7">O</text>
<text alignment-baseline="baseline" y="-68.3598175048828" x="-33.92741203308105" style="font-family: cmmi7;" font-size="7">B</text>
<text alignment-baseline="baseline" y="-68.3598175048828" x="-27.544403076171868" style="font-family: cmmi7;" font-size="7">D</text>
</g> </g>
 </g></g>
 <g stroke-width="0.8">
 <path d=" M 13.60243 0.0 L 41.25519 0.0  " fill="none"/>
 <g transform="translate(41.65518,0.0)">
 <g stroke-dasharray="none" stroke-dashoffset="0.0">
 <g stroke-linecap="round">
 <g stroke-linejoin="round">
 <path d=" M -2.56 3.12257 C -2.0923 1.24901 -1.05006 0.3643 0.0 0.0 C -1.05006 -0.3643 -2.0923 -1.24901 -2.56 -3.12257  " fill="none"/>
 </g>
 </g>
 </g>
  </g>
 </g>
 <g stroke-width="0.8">
 <path d=" M 81.68884 0.0 L 109.3416 0.0  " fill="none"/>
 <g transform="translate(109.7416,0.0)">
 <g stroke-dasharray="none" stroke-dashoffset="0.0">
 <g stroke-linecap="round">
 <g stroke-linejoin="round">
 <path d=" M -2.56 3.12257 C -2.0923 1.24901 -1.05006 0.3643 0.0 0.0 C -1.05006 -0.3643 -2.0923 -1.24901 -2.56 -3.12257  " fill="none"/>
 </g>
 </g>
 </g>
  </g>
 </g>
 <g stroke-width="0.8">
 <path d=" M 150.02763 0.0 L 177.68039 0.0  " fill="none"/>
 <g transform="translate(178.08038,0.0)">
 <g stroke-dasharray="none" stroke-dashoffset="0.0">
 <g stroke-linecap="round">
 <g stroke-linejoin="round">
 <path d=" M -2.56 3.12257 C -2.0923 1.24901 -1.05006 0.3643 0.0 0.0 C -1.05006 -0.3643 -2.0923 -1.24901 -2.56 -3.12257  " fill="none"/>
 </g>
 </g>
 </g>
  </g>
 </g>
 <g stroke-width="0.8">
 <path d=" M 61.87201 -7.7391 L 61.87201 -35.39186  " fill="none"/>
 <g transform="matrix(0.0,-1.0,1.0,0.0,61.87201,-35.79185)">
 <g stroke-dasharray="none" stroke-dashoffset="0.0">
 <g stroke-linecap="round">
 <g stroke-linejoin="round">
 <path d=" M -2.56 3.12257 C -2.0923 1.24901 -1.05006 0.3643 0.0 0.0 C -1.05006 -0.3643 -2.0923 -1.24901 -2.56 -3.12257  " fill="none"/>
 </g>
 </g>
 </g>
  </g>
 </g>
 <g stroke-width="0.8">
 <path d=" M 130.08461 -7.7391 L 130.08461 -35.39186  " fill="none"/>
 <g transform="matrix(0.0,-1.0,1.0,0.0,130.08461,-35.79185)">
 <g stroke-dasharray="none" stroke-dashoffset="0.0">
 <g stroke-linecap="round">
 <g stroke-linejoin="round">
 <path d=" M -2.56 3.12257 C -2.0923 1.24901 -1.05006 0.3643 0.0 0.0 C -1.05006 -0.3643 -2.0923 -1.24901 -2.56 -3.12257  " fill="none"/>
 </g>
 </g>
 </g>
  </g>
 </g>
 <g stroke-width="0.8">
 <path d=" M 199.52818 -7.7391 L 199.52818 -35.39186  " fill="none"/>
 <g transform="matrix(0.0,-1.0,1.0,0.0,199.52818,-35.79185)">
 <g stroke-dasharray="none" stroke-dashoffset="0.0">
 <g stroke-linecap="round">
 <g stroke-linejoin="round">
 <path d=" M -2.56 3.12257 C -2.0923 1.24901 -1.05006 0.3643 0.0 0.0 C -1.05006 -0.3643 -2.0923 -1.24901 -2.56 -3.12257  " fill="none"/>
 </g>
 </g>
 </g>
  </g>
 </g>
 <g stroke-width="0.8">
 <path d=" M 73.88477 -7.7391 L 117.40189 -35.75879  " fill="none"/>
 <g transform="matrix(0.84074,-0.54134,0.54134,0.84074,117.73817,-35.97531)">
 <g stroke-dasharray="none" stroke-dashoffset="0.0">
 <g stroke-linecap="round">
 <g stroke-linejoin="round">
 <path d=" M -2.56 3.12257 C -2.0923 1.24901 -1.05006 0.3643 0.0 0.0 C -1.05006 -0.3643 -2.0923 -1.24901 -2.56 -3.12257  " fill="none"/>
 </g>
 </g>
 </g>
  </g>
 </g>
 <g stroke-width="0.8">
 <path d=" M 187.29861 -7.7391 L 142.98764 -35.76427  " fill="none"/>
 <g transform="matrix(-0.84511,-0.5345,0.5345,-0.84511,142.6496,-35.97806)">
 <g stroke-dasharray="none" stroke-dashoffset="0.0">
 <g stroke-linecap="round">
 <g stroke-linejoin="round">
 <path d=" M -2.56 3.12257 C -2.0923 1.24901 -1.05006 0.3643 0.0 0.0 C -1.05006 -0.3643 -2.0923 -1.24901 -2.56 -3.12257  " fill="none"/>
 </g>
 </g>
 </g>
  </g>
 </g>
 </g>
 </g>
 </g></g></svg>